<?xml version="1.0" encoding="UTF-8"?>
<!DOCTYPE svg PUBLIC "-//W3C//DTD SVG 1.1//EN" "http://www.w3.org/Graphics/SVG/1.1/DTD/svg11.dtd">
<svg xmlns="http://www.w3.org/2000/svg" version="1.1" width="4000px" height="4000px" style="shape-rendering:geometricPrecision; text-rendering:geometricPrecision; image-rendering:optimizeQuality; fill-rule:evenodd; clip-rule:evenodd" xmlns:xlink="http://www.w3.org/1999/xlink">
<g><path style="opacity:0.569" fill="#fefffe" d="M 1986.5,754.5 C 2189.4,747.753 2370.73,805.919 2530.5,929C 2640.45,1015.48 2726.29,1121.31 2788,1246.5C 2872.74,1426.99 2890.74,1613.99 2842,1807.5C 2820.94,1885.04 2789.61,1958.04 2748,2026.5C 2658.47,2173.04 2537.3,2285.21 2384.5,2363C 2229.32,2436.65 2066.65,2460.98 1896.5,2436C 1770.87,2416.49 1656.2,2370.49 1552.5,2298C 1410.11,2197.05 1304.95,2066.22 1237,1905.5C 1165.86,1724.75 1158.53,1541.42 1215,1355.5C 1245.58,1262.07 1290.25,1176.41 1349,1098.5C 1415.9,1010.58 1495.74,937.082 1588.5,878C 1710.43,802.512 1843.1,761.345 1986.5,754.5 Z M 1997.5,774.5 C 2193.35,770.617 2368.02,828.451 2521.5,948C 2647.43,1048.31 2739.93,1173.48 2799,1323.5C 2868.81,1517.45 2865.48,1710.12 2789,1901.5C 2709.23,2086.26 2582.06,2228.42 2407.5,2328C 2258.11,2407.54 2099.11,2438.21 1930.5,2420C 1778.22,2402.17 1642.55,2345.84 1523.5,2251C 1434.03,2179.89 1360.87,2095.06 1304,1996.5C 1209.93,1830.45 1178.26,1653.12 1209,1464.5C 1231.24,1342.07 1278.57,1230.74 1351,1130.5C 1440.03,1005.45 1553.87,910.284 1692.5,845C 1789.76,802.051 1891.43,778.551 1997.5,774.5 Z M 1970.5,1625.5 C 1990.83,1625.5 2011.17,1625.5 2031.5,1625.5C 2031.5,1651.83 2031.5,1678.17 2031.5,1704.5C 2011.17,1704.5 1990.83,1704.5 1970.5,1704.5C 1970.5,1678.17 1970.5,1651.83 1970.5,1625.5 Z"/></g>
<g><path style="opacity:0.966" fill="#ff624d" d="M 1940.5,1621.5 C 1941.83,1622.83 1941.83,1624.17 1940.5,1625.5C 1880.17,1625.5 1819.83,1625.5 1759.5,1625.5C 1759.5,1705.17 1759.5,1784.83 1759.5,1864.5C 1767.83,1864.5 1776.17,1864.5 1784.5,1864.5C 1784.5,1865.83 1784.5,1867.17 1784.5,1868.5C 1757.83,1868.5 1731.17,1868.5 1704.5,1868.5C 1704.5,1867.17 1704.5,1865.83 1704.5,1864.5C 1712.83,1864.5 1721.17,1864.5 1729.5,1864.5C 1729.5,1666.5 1729.5,1468.5 1729.5,1270.5C 1721.17,1270.5 1712.83,1270.5 1704.5,1270.5C 1704.5,1269.17 1704.5,1267.83 1704.5,1266.5C 1731.17,1266.5 1757.83,1266.5 1784.5,1266.5C 1784.5,1267.83 1784.5,1269.17 1784.5,1270.5C 1776.17,1270.5 1767.83,1270.5 1759.5,1270.5C 1759.5,1387.5 1759.5,1504.5 1759.5,1621.5C 1819.83,1621.5 1880.17,1621.5 1940.5,1621.5 Z"/></g>
<g><path style="opacity:0.995" fill="#ff634e" d="M 2061.5,1704.5 C 2051.6,1705.82 2041.6,1705.82 2031.5,1704.5C 2031.5,1678.17 2031.5,1651.83 2031.5,1625.5C 2011.17,1625.5 1990.83,1625.5 1970.5,1625.5C 1970.5,1624.17 1970.5,1622.83 1970.5,1621.5C 1990.83,1621.5 2011.17,1621.5 2031.5,1621.5C 2031.5,1504.5 2031.5,1387.5 2031.5,1270.5C 2023.49,1270.67 2015.49,1270.5 2007.5,1270C 2006.66,1268.99 2006.33,1267.82 2006.5,1266.5C 2033.17,1266.5 2059.83,1266.5 2086.5,1266.5C 2086.5,1267.83 2086.5,1269.17 2086.5,1270.5C 2078.17,1270.5 2069.83,1270.5 2061.5,1270.5C 2061.5,1415.17 2061.5,1559.83 2061.5,1704.5 Z"/></g>
<g><path style="opacity:0.958" fill="#fffefe" d="M 1970.5,1621.5 C 1970.5,1622.83 1970.5,1624.17 1970.5,1625.5C 1970.5,1651.83 1970.5,1678.17 1970.5,1704.5C 1990.83,1704.5 2011.17,1704.5 2031.5,1704.5C 2041.6,1705.82 2051.6,1705.82 2061.5,1704.5C 2122.17,1704.5 2182.83,1704.5 2243.5,1704.5C 2243.5,1587.5 2243.5,1470.5 2243.5,1353.5C 2235.17,1353.5 2226.83,1353.5 2218.5,1353.5C 2218.5,1352.17 2218.5,1350.83 2218.5,1349.5C 2245.17,1349.5 2271.83,1349.5 2298.5,1349.5C 2298.5,1350.83 2298.5,1352.17 2298.5,1353.5C 2290.17,1353.5 2281.83,1353.5 2273.5,1353.5C 2273.5,1551.5 2273.5,1749.5 2273.5,1947.5C 2281.83,1947.5 2290.17,1947.5 2298.5,1947.5C 2298.5,1948.83 2298.5,1950.17 2298.5,1951.5C 2271.83,1951.5 2245.17,1951.5 2218.5,1951.5C 2218.5,1950.17 2218.5,1948.83 2218.5,1947.5C 2226.83,1947.5 2235.17,1947.5 2243.5,1947.5C 2243.5,1868.17 2243.5,1788.83 2243.5,1709.5C 2182.83,1709.5 2122.17,1709.5 2061.5,1709.5C 2051.6,1708.18 2041.6,1708.18 2031.5,1709.5C 2011.17,1709.5 1990.83,1709.5 1970.5,1709.5C 1970.5,1788.83 1970.5,1868.17 1970.5,1947.5C 1978.83,1947.5 1987.17,1947.5 1995.5,1947.5C 1995.5,1948.83 1995.5,1950.17 1995.5,1951.5C 1968.83,1951.5 1942.17,1951.5 1915.5,1951.5C 1915.5,1950.17 1915.5,1948.83 1915.5,1947.5C 1923.83,1947.5 1932.17,1947.5 1940.5,1947.5C 1940.5,1840.17 1940.5,1732.83 1940.5,1625.5C 1941.83,1624.17 1941.83,1622.83 1940.5,1621.5C 1940.5,1532.17 1940.5,1442.83 1940.5,1353.5C 1932.17,1353.5 1923.83,1353.5 1915.5,1353.5C 1915.5,1352.17 1915.5,1350.83 1915.5,1349.5C 1942.17,1349.5 1968.83,1349.5 1995.5,1349.5C 1995.5,1350.83 1995.5,1352.17 1995.5,1353.5C 1987.17,1353.5 1978.83,1353.5 1970.5,1353.5C 1970.5,1442.83 1970.5,1532.17 1970.5,1621.5 Z M 1970.5,1625.5 C 1990.83,1625.5 2011.17,1625.5 2031.5,1625.5C 2031.5,1651.83 2031.5,1678.17 2031.5,1704.5C 2011.17,1704.5 1990.83,1704.5 1970.5,1704.5C 1970.5,1678.17 1970.5,1651.83 1970.5,1625.5 Z"/></g>
<g><path style="opacity:0.997" fill="#ff634e" d="M 2061.5,1709.5 C 2061.5,1761.17 2061.5,1812.83 2061.5,1864.5C 2069.83,1864.5 2078.17,1864.5 2086.5,1864.5C 2086.5,1865.83 2086.5,1867.17 2086.5,1868.5C 2060.16,1868.67 2033.83,1868.5 2007.5,1868C 2006.66,1866.99 2006.33,1865.82 2006.5,1864.5C 2014.83,1864.5 2023.17,1864.5 2031.5,1864.5C 2031.5,1812.83 2031.5,1761.17 2031.5,1709.5C 2041.6,1708.18 2051.6,1708.18 2061.5,1709.5 Z"/></g>
<g><path style="opacity:0.944" fill="#fefffe" d="M 1995.5,2670.5 C 2032.37,2667.51 2063.87,2678.84 2090,2704.5C 2113.59,2733.76 2122.26,2767.09 2116,2804.5C 2106.38,2854.46 2076.54,2883.96 2026.5,2893C 1995.73,2897.71 1967.06,2892.05 1940.5,2876C 1909.12,2851.96 1893.79,2819.96 1894.5,2780C 1898.66,2716.02 1932.32,2679.52 1995.5,2670.5 Z M 1993.5,2690.5 C 2027.02,2686.72 2055.19,2697.06 2078,2721.5C 2095.87,2746.49 2101.87,2774.16 2096,2804.5C 2086.16,2844.34 2061,2867.5 2020.5,2874C 1986.6,2878.48 1958.1,2868.31 1935,2843.5C 1917.17,2818.5 1911.17,2790.83 1917,2760.5C 1927.1,2720.23 1952.6,2696.9 1993.5,2690.5 Z"/></g>
<g><path style="opacity:0.943" fill="#fefffe" d="M 2734.5,2670.5 C 2765.89,2668.25 2793.89,2676.75 2818.5,2696C 2833.53,2709.55 2843.86,2726.05 2849.5,2745.5C 2842.83,2745.67 2836.16,2745.5 2829.5,2745C 2813.55,2709.34 2785.88,2691.17 2746.5,2690.5C 2702.98,2690.87 2674.15,2711.54 2660,2752.5C 2651.21,2785.42 2656.54,2815.75 2676,2843.5C 2701.89,2870.9 2733.39,2880.4 2770.5,2872C 2799.78,2864.55 2819.78,2846.72 2830.5,2818.5C 2837.5,2817.17 2844.5,2817.17 2851.5,2818.5C 2835.88,2863.67 2804.21,2888.83 2756.5,2894C 2711.73,2897.78 2676.9,2881.28 2652,2844.5C 2630.19,2803.14 2630.19,2761.81 2652,2720.5C 2671.44,2690.69 2698.94,2674.02 2734.5,2670.5 Z"/></g>
<g><path style="opacity:0.981" fill="#ff624d" d="M 926.5,2674.5 C 933.167,2674.5 939.833,2674.5 946.5,2674.5C 946.5,2706.83 946.5,2739.17 946.5,2771.5C 988.167,2771.5 1029.83,2771.5 1071.5,2771.5C 1071.5,2739.17 1071.5,2706.83 1071.5,2674.5C 1077.83,2674.5 1084.17,2674.5 1090.5,2674.5C 1090.5,2746.5 1090.5,2818.5 1090.5,2890.5C 1084.17,2890.5 1077.83,2890.5 1071.5,2890.5C 1071.5,2856.83 1071.5,2823.17 1071.5,2789.5C 1029.83,2789.5 988.167,2789.5 946.5,2789.5C 946.5,2823.17 946.5,2856.83 946.5,2890.5C 939.833,2890.5 933.167,2890.5 926.5,2890.5C 926.5,2818.5 926.5,2746.5 926.5,2674.5 Z"/></g>
<g><path style="opacity:0.963" fill="#ff624d" d="M 1247.5,2674.5 C 1254.09,2674.19 1260.59,2674.52 1267,2675.5C 1297.07,2746.97 1326.57,2818.64 1355.5,2890.5C 1348.58,2890.81 1341.74,2890.48 1335,2889.5C 1327.33,2872 1320.17,2854.33 1313.5,2836.5C 1276.16,2836.17 1238.83,2836.5 1201.5,2837.5C 1194.61,2854.95 1187.44,2872.28 1180,2889.5C 1173.26,2890.48 1166.42,2890.81 1159.5,2890.5C 1188.64,2818.42 1217.97,2746.42 1247.5,2674.5 Z M 1256.5,2703.5 C 1257.75,2703.58 1258.58,2704.24 1259,2705.5C 1274.37,2743.07 1289.87,2780.57 1305.5,2818C 1273.5,2818.67 1241.5,2818.67 1209.5,2818C 1225.58,2780 1241.25,2741.83 1256.5,2703.5 Z"/></g>
<g><path style="opacity:0.984" fill="#ff624d" d="M 1424.5,2674.5 C 1430.83,2674.5 1437.17,2674.5 1443.5,2674.5C 1443.5,2746.5 1443.5,2818.5 1443.5,2890.5C 1437.17,2890.5 1430.83,2890.5 1424.5,2890.5C 1424.5,2818.5 1424.5,2746.5 1424.5,2674.5 Z"/></g>
<g><path style="opacity:0.947" fill="#fefffe" d="M 1649.5,2674.5 C 1656.17,2674.5 1662.83,2674.5 1669.5,2674.5C 1669.5,2706.83 1669.5,2739.17 1669.5,2771.5C 1711.17,2771.5 1752.83,2771.5 1794.5,2771.5C 1794.5,2739.17 1794.5,2706.83 1794.5,2674.5C 1801.17,2674.5 1807.83,2674.5 1814.5,2674.5C 1814.5,2746.5 1814.5,2818.5 1814.5,2890.5C 1807.83,2890.5 1801.17,2890.5 1794.5,2890.5C 1794.5,2856.83 1794.5,2823.17 1794.5,2789.5C 1752.83,2789.5 1711.17,2789.5 1669.5,2789.5C 1669.5,2823.17 1669.5,2856.83 1669.5,2890.5C 1662.83,2890.5 1656.17,2890.5 1649.5,2890.5C 1649.5,2818.5 1649.5,2746.5 1649.5,2674.5 Z"/></g>
<g><path style="opacity:0.946" fill="#fefffe" d="M 2198.5,2674.5 C 2228.17,2674.33 2257.84,2674.5 2287.5,2675C 2333.51,2681.47 2354.35,2707.97 2350,2754.5C 2344.22,2784.28 2326.38,2802.12 2296.5,2808C 2315.83,2835.33 2335.17,2862.67 2354.5,2890C 2346.5,2890.67 2338.5,2890.67 2330.5,2890C 2311.25,2863.51 2292.25,2836.84 2273.5,2810C 2255.17,2809.5 2236.84,2809.33 2218.5,2809.5C 2218.5,2836.5 2218.5,2863.5 2218.5,2890.5C 2211.83,2890.5 2205.17,2890.5 2198.5,2890.5C 2198.5,2818.5 2198.5,2746.5 2198.5,2674.5 Z M 2218.5,2693.5 C 2241.5,2693.33 2264.5,2693.5 2287.5,2694C 2315.8,2697.8 2330.14,2713.97 2330.5,2742.5C 2329.95,2769.55 2316.29,2785.39 2289.5,2790C 2265.86,2791.36 2242.19,2791.86 2218.5,2791.5C 2218.5,2758.83 2218.5,2726.17 2218.5,2693.5 Z"/></g>
<g><path style="opacity:0.956" fill="#fefffe" d="M 2436.5,2674.5 C 2478.83,2674.5 2521.17,2674.5 2563.5,2674.5C 2563.5,2680.5 2563.5,2686.5 2563.5,2692.5C 2527.83,2692.5 2492.17,2692.5 2456.5,2692.5C 2456.5,2718.83 2456.5,2745.17 2456.5,2771.5C 2489.5,2771.33 2522.5,2771.5 2555.5,2772C 2556.83,2777.67 2556.83,2783.33 2555.5,2789C 2522.5,2789.5 2489.5,2789.67 2456.5,2789.5C 2456.5,2817.17 2456.5,2844.83 2456.5,2872.5C 2493.5,2872.5 2530.5,2872.5 2567.5,2872.5C 2567.5,2878.5 2567.5,2884.5 2567.5,2890.5C 2523.83,2890.5 2480.17,2890.5 2436.5,2890.5C 2436.5,2818.5 2436.5,2746.5 2436.5,2674.5 Z"/></g>
<g><path style="opacity:0.944" fill="#fefffe" d="M 2992.5,2674.5 C 2998.87,2674.17 3005.2,2674.5 3011.5,2675.5C 3040.88,2747.14 3070.54,2818.64 3100.5,2890C 3093.25,2890.81 3086.09,2890.65 3079,2889.5C 3071.93,2872.13 3064.76,2854.79 3057.5,2837.5C 3020.17,2836.5 2982.84,2836.17 2945.5,2836.5C 2938.8,2854.25 2931.8,2871.91 2924.5,2889.5C 2917.53,2890.5 2910.53,2890.83 2903.5,2890.5C 2932.61,2818.28 2962.28,2746.28 2992.5,2674.5 Z M 3001.5,2702.5 C 3017.72,2740.63 3033.72,2778.96 3049.5,2817.5C 3017.84,2818.5 2986.17,2818.83 2954.5,2818.5C 2969.77,2779.68 2985.44,2741.01 3001.5,2702.5 Z"/></g>
<g><path style="opacity:0.904" fill="#ff624d" d="M 2289.5,3124.5 C 2292.17,3124.5 2294.83,3124.5 2297.5,3124.5C 2297.33,3136.5 2297.5,3148.5 2298,3160.5C 2311.44,3148.12 2326.27,3146.29 2342.5,3155C 2354.27,3164.99 2358.44,3177.49 2355,3192.5C 2348.6,3210.63 2335.77,3218.46 2316.5,3216C 2308.14,3214.63 2301.64,3210.46 2297,3203.5C 2296.5,3207.15 2296.33,3210.82 2296.5,3214.5C 2294.17,3214.5 2291.83,3214.5 2289.5,3214.5C 2289.5,3184.5 2289.5,3154.5 2289.5,3124.5 Z M 2316.5,3157.5 C 2330.04,3155.6 2339.87,3160.6 2346,3172.5C 2350.68,3199.49 2339.51,3210.99 2312.5,3207C 2298.7,3199.37 2294.2,3187.87 2299,3172.5C 2302.86,3165.13 2308.7,3160.13 2316.5,3157.5 Z"/></g>
<g><path style="opacity:0.903" fill="#ff624d" d="M 1747.5,3127.5 C 1757.24,3126.39 1760.24,3130.22 1756.5,3139C 1750.32,3142.11 1746.32,3140.44 1744.5,3134C 1744.84,3131.49 1745.84,3129.32 1747.5,3127.5 Z"/></g>
<g><path style="opacity:0.894" fill="#ff624c" d="M 2524.5,3126.5 C 2529.24,3126.74 2531.91,3129.24 2532.5,3134C 2531.03,3139.9 2527.37,3141.9 2521.5,3140C 2516.83,3134.14 2517.83,3129.64 2524.5,3126.5 Z"/></g>
<g><path style="opacity:0.96" fill="#ff624e" d="M 1149.5,3128.5 C 1166.5,3128.5 1183.5,3128.5 1200.5,3128.5C 1200.5,3131.17 1200.5,3133.83 1200.5,3136.5C 1186.17,3136.5 1171.83,3136.5 1157.5,3136.5C 1157.5,3146.83 1157.5,3157.17 1157.5,3167.5C 1170.5,3167.5 1183.5,3167.5 1196.5,3167.5C 1196.5,3169.83 1196.5,3172.17 1196.5,3174.5C 1183.5,3174.5 1170.5,3174.5 1157.5,3174.5C 1157.5,3185.5 1157.5,3196.5 1157.5,3207.5C 1172.17,3207.5 1186.83,3207.5 1201.5,3207.5C 1201.5,3209.83 1201.5,3212.17 1201.5,3214.5C 1183.83,3214.5 1166.17,3214.5 1148.5,3214.5C 1148.18,3185.76 1148.51,3157.09 1149.5,3128.5 Z"/></g>
<g><path style="opacity:0.907" fill="#ff624d" d="M 1245.5,3149.5 C 1257.65,3148.09 1266.98,3152.43 1273.5,3162.5C 1284.43,3148.94 1297.76,3146.1 1313.5,3154C 1318.33,3158.16 1321.49,3163.32 1323,3169.5C 1324.35,3184.46 1324.85,3199.46 1324.5,3214.5C 1321.5,3214.5 1318.5,3214.5 1315.5,3214.5C 1315.81,3199.96 1315.48,3185.46 1314.5,3171C 1311.66,3162.4 1305.66,3157.9 1296.5,3157.5C 1287.32,3158.18 1281.15,3162.85 1278,3171.5C 1276.63,3185.79 1276.13,3200.13 1276.5,3214.5C 1273.83,3214.5 1271.17,3214.5 1268.5,3214.5C 1268.81,3199.96 1268.48,3185.46 1267.5,3171C 1261.9,3158.13 1252.56,3154.46 1239.5,3160C 1235.51,3162.99 1232.68,3166.82 1231,3171.5C 1229.61,3185.79 1229.11,3200.12 1229.5,3214.5C 1226.83,3214.5 1224.17,3214.5 1221.5,3214.5C 1221.5,3193.5 1221.5,3172.5 1221.5,3151.5C 1223.83,3151.5 1226.17,3151.5 1228.5,3151.5C 1228.3,3153.99 1228.8,3156.32 1230,3158.5C 1234.27,3153.79 1239.44,3150.79 1245.5,3149.5 Z"/></g>
<g><path style="opacity:0.897" fill="#ff624d" d="M 1375.5,3149.5 C 1398.63,3148.89 1411.3,3160.05 1413.5,3183C 1413.25,3197.19 1406.91,3207.52 1394.5,3214C 1381.58,3218.47 1369.58,3216.8 1358.5,3209C 1356.95,3207.79 1355.78,3206.29 1355,3204.5C 1354.5,3216.16 1354.33,3227.83 1354.5,3239.5C 1351.83,3239.5 1349.17,3239.5 1346.5,3239.5C 1346.5,3210.17 1346.5,3180.83 1346.5,3151.5C 1348.83,3151.5 1351.17,3151.5 1353.5,3151.5C 1353.09,3155.05 1353.59,3158.38 1355,3161.5C 1360.42,3155.04 1367.25,3151.04 1375.5,3149.5 Z M 1374.5,3157.5 C 1393.03,3156.09 1403.36,3164.59 1405.5,3183C 1403.3,3202.2 1392.63,3210.53 1373.5,3208C 1359.05,3202.94 1352.88,3192.77 1355,3177.5C 1357.68,3166.99 1364.18,3160.32 1374.5,3157.5 Z"/></g>
<g><path style="opacity:0.907" fill="#ff624d" d="M 1454.5,3149.5 C 1472.85,3147.92 1485.35,3155.58 1492,3172.5C 1496.49,3192.35 1489.65,3206.52 1471.5,3215C 1456.46,3219.2 1443.63,3215.7 1433,3204.5C 1425.16,3191.56 1424.49,3178.23 1431,3164.5C 1436.9,3156.31 1444.74,3151.31 1454.5,3149.5 Z M 1454.5,3157.5 C 1473.01,3156.09 1483.35,3164.59 1485.5,3183C 1483.34,3202.15 1472.68,3210.48 1453.5,3208C 1439.06,3202.97 1432.9,3192.81 1435,3177.5C 1437.68,3166.99 1444.18,3160.32 1454.5,3157.5 Z"/></g>
<g><path style="opacity:0.897" fill="#ff624d" d="M 1638.5,3149.5 C 1663.63,3148.97 1676.3,3161.3 1676.5,3186.5C 1657.49,3186.17 1638.49,3186.5 1619.5,3187.5C 1623.42,3203.81 1633.76,3210.64 1650.5,3208C 1657.11,3206.53 1662.11,3202.86 1665.5,3197C 1668.55,3196.18 1671.55,3196.35 1674.5,3197.5C 1669.72,3207.73 1661.72,3213.9 1650.5,3216C 1630.2,3218.61 1617.36,3210.11 1612,3190.5C 1608.85,3168.76 1617.68,3155.09 1638.5,3149.5 Z M 1638.5,3157.5 C 1655.09,3156.11 1665.09,3163.44 1668.5,3179.5C 1652.17,3179.5 1635.83,3179.5 1619.5,3179.5C 1620.91,3167.77 1627.24,3160.43 1638.5,3157.5 Z"/></g>
<g><path style="opacity:0.888" fill="#ff624d" d="M 1805.5,3149.5 C 1822.99,3147.84 1833.49,3155.51 1837,3172.5C 1837.5,3186.5 1837.67,3200.5 1837.5,3214.5C 1834.83,3214.5 1832.17,3214.5 1829.5,3214.5C 1829.93,3199.77 1829.43,3185.11 1828,3170.5C 1821.1,3157.31 1810.93,3154.15 1797.5,3161C 1791.56,3165.72 1788.39,3171.89 1788,3179.5C 1787.5,3191.16 1787.33,3202.83 1787.5,3214.5C 1784.83,3214.5 1782.17,3214.5 1779.5,3214.5C 1779.5,3193.5 1779.5,3172.5 1779.5,3151.5C 1781.83,3151.5 1784.17,3151.5 1786.5,3151.5C 1786.55,3154.57 1787.05,3157.57 1788,3160.5C 1792.74,3154.89 1798.58,3151.22 1805.5,3149.5 Z"/></g>
<g><path style="opacity:0.909" fill="#ff624d" d="M 1881.5,3149.5 C 1891.46,3148.74 1900.46,3151.24 1908.5,3157C 1910.05,3158.21 1911.22,3159.71 1912,3161.5C 1912.5,3158.18 1912.67,3154.85 1912.5,3151.5C 1914.83,3151.5 1917.17,3151.5 1919.5,3151.5C 1919.67,3173.84 1919.5,3196.17 1919,3218.5C 1916.06,3230.44 1908.56,3237.6 1896.5,3240C 1884.2,3242.38 1873.37,3239.55 1864,3231.5C 1861.06,3227.63 1859.23,3223.29 1858.5,3218.5C 1861.19,3218.34 1863.85,3218.5 1866.5,3219C 1870.43,3228.4 1877.6,3233.23 1888,3233.5C 1906.24,3231.7 1913.91,3221.7 1911,3203.5C 1899.58,3214.72 1886.41,3217.22 1871.5,3211C 1860.57,3204.32 1854.9,3194.49 1854.5,3181.5C 1855.66,3164.02 1864.66,3153.36 1881.5,3149.5 Z M 1881.5,3157.5 C 1905.69,3157.51 1915.19,3169.17 1910,3192.5C 1902.02,3205.27 1890.85,3209.11 1876.5,3204C 1867.56,3199.47 1862.89,3192.13 1862.5,3182C 1863.46,3169.55 1869.8,3161.38 1881.5,3157.5 Z"/></g>
<g><path style="opacity:0.903" fill="#ff624d" d="M 2066.5,3149.5 C 2093.85,3149.01 2106.68,3162.35 2105,3189.5C 2099.69,3209.78 2086.53,3218.61 2065.5,3216C 2045.73,3210.87 2036.9,3198.04 2039,3177.5C 2041.68,3161.65 2050.85,3152.32 2066.5,3149.5 Z M 2066.5,3157.5 C 2087.97,3156.8 2098.13,3167.13 2097,3188.5C 2092.19,3204 2081.69,3210.5 2065.5,3208C 2051.36,3203.24 2045.2,3193.41 2047,3178.5C 2049.25,3167.42 2055.75,3160.42 2066.5,3157.5 Z"/></g>
<g><path style="opacity:0.896" fill="#ff624d" d="M 2469.5,3149.5 C 2480.78,3148.02 2490.28,3151.36 2498,3159.5C 2499.76,3162.61 2500.59,3165.94 2500.5,3169.5C 2497.83,3169.5 2495.17,3169.5 2492.5,3169.5C 2492.56,3165.45 2490.89,3162.29 2487.5,3160C 2478.63,3155.39 2469.96,3155.72 2461.5,3161C 2457.12,3169.2 2459.45,3174.53 2468.5,3177C 2477.57,3178.43 2486.23,3181.1 2494.5,3185C 2502.37,3192.17 2503.53,3200.34 2498,3209.5C 2491.82,3214.64 2484.65,3216.98 2476.5,3216.5C 2461.27,3217.25 2452.27,3210.25 2449.5,3195.5C 2452.25,3195.19 2454.91,3195.52 2457.5,3196.5C 2458.47,3201.31 2461.14,3204.81 2465.5,3207C 2472.08,3209.59 2478.74,3209.92 2485.5,3208C 2494.45,3204.01 2495.78,3198.35 2489.5,3191C 2487.5,3190 2485.5,3189 2483.5,3188C 2474.36,3186.84 2465.69,3184.17 2457.5,3180C 2448.2,3171.39 2448.2,3162.73 2457.5,3154C 2461.43,3151.97 2465.43,3150.47 2469.5,3149.5 Z"/></g>
<g><path style="opacity:0.894" fill="#ff624d" d="M 2579.5,3149.5 C 2597.41,3147.92 2607.91,3155.92 2611,3173.5C 2611.5,3187.16 2611.67,3200.83 2611.5,3214.5C 2608.83,3214.5 2606.17,3214.5 2603.5,3214.5C 2603.67,3201.5 2603.5,3188.5 2603,3175.5C 2598.29,3158.4 2587.79,3153.57 2571.5,3161C 2567.51,3163.99 2564.68,3167.82 2563,3172.5C 2561.57,3186.44 2561.07,3200.44 2561.5,3214.5C 2558.83,3214.5 2556.17,3214.5 2553.5,3214.5C 2553.5,3193.5 2553.5,3172.5 2553.5,3151.5C 2555.83,3151.5 2558.17,3151.5 2560.5,3151.5C 2560.33,3154.85 2560.5,3158.18 2561,3161.5C 2565.69,3155.08 2571.86,3151.08 2579.5,3149.5 Z"/></g>
<g><path style="opacity:0.898" fill="#ff624d" d="M 2655.5,3149.5 C 2680.69,3149.02 2693.36,3161.36 2693.5,3186.5C 2674.5,3186.33 2655.5,3186.5 2636.5,3187C 2642.7,3207.26 2655.7,3213.26 2675.5,3205C 2678.02,3202.65 2680.35,3200.15 2682.5,3197.5C 2685.43,3196.52 2688.43,3196.18 2691.5,3196.5C 2687.6,3207.88 2679.6,3214.38 2667.5,3216C 2646.61,3218.65 2633.78,3209.82 2629,3189.5C 2626.62,3168.43 2635.45,3155.1 2655.5,3149.5 Z M 2655.5,3157.5 C 2672.46,3155.62 2682.46,3162.96 2685.5,3179.5C 2669.16,3179.67 2652.83,3179.5 2636.5,3179C 2638.83,3168.11 2645.16,3160.95 2655.5,3157.5 Z"/></g>
<g><path style="opacity:0.894" fill="#ff624c" d="M 2726.5,3149.5 C 2737.54,3147.96 2747.04,3150.96 2755,3158.5C 2757.08,3161.89 2758.24,3165.56 2758.5,3169.5C 2755.83,3169.5 2753.17,3169.5 2750.5,3169.5C 2750.03,3165.72 2748.36,3162.55 2745.5,3160C 2737.17,3155.33 2728.83,3155.33 2720.5,3160C 2714.41,3168.2 2716.41,3173.86 2726.5,3177C 2733.97,3178.49 2741.31,3180.49 2748.5,3183C 2758.72,3187.94 2761.89,3195.78 2758,3206.5C 2753.78,3211.86 2748.28,3215.03 2741.5,3216C 2730.42,3218.06 2720.59,3215.56 2712,3208.5C 2709.01,3204.69 2707.51,3200.36 2707.5,3195.5C 2710.17,3195.5 2712.83,3195.5 2715.5,3195.5C 2715.57,3200.08 2717.57,3203.58 2721.5,3206C 2729.37,3209.91 2737.37,3210.24 2745.5,3207C 2752.59,3202.47 2753.25,3197.14 2747.5,3191C 2737.99,3187.5 2728.33,3184.5 2718.5,3182C 2708.6,3176.63 2706.1,3168.8 2711,3158.5C 2715.27,3153.79 2720.44,3150.79 2726.5,3149.5 Z"/></g>
<g><path style="opacity:0.897" fill="#ff624d" d="M 2793.5,3149.5 C 2801.13,3148.91 2808.47,3150.08 2815.5,3153C 2821.51,3156.85 2824.84,3162.35 2825.5,3169.5C 2822.75,3169.81 2820.09,3169.48 2817.5,3168.5C 2814.53,3160.23 2808.53,3156.23 2799.5,3156.5C 2793.79,3156.47 2788.95,3158.47 2785,3162.5C 2782.29,3167.77 2783.46,3171.94 2788.5,3175C 2796.38,3177.71 2804.38,3180.04 2812.5,3182C 2825.42,3186.45 2829.26,3194.95 2824,3207.5C 2819.93,3212.29 2814.76,3215.12 2808.5,3216C 2796.8,3218.2 2786.63,3215.37 2778,3207.5C 2775.71,3203.81 2774.55,3199.81 2774.5,3195.5C 2777.17,3195.5 2779.83,3195.5 2782.5,3195.5C 2784.23,3204.05 2789.56,3208.55 2798.5,3209C 2803.29,3209.38 2807.95,3208.71 2812.5,3207C 2819.59,3202.47 2820.25,3197.14 2814.5,3191C 2805.75,3187.56 2796.75,3184.89 2787.5,3183C 2776.67,3178.52 2773.17,3170.68 2777,3159.5C 2781.07,3153.72 2786.57,3150.39 2793.5,3149.5 Z"/></g>
<g><path style="opacity:0.91" fill="#ff624d" d="M 1502.5,3151.5 C 1505.45,3151.22 1508.28,3151.56 1511,3152.5C 1516.8,3168.91 1522.8,3185.24 1529,3201.5C 1535.61,3185.28 1541.94,3168.94 1548,3152.5C 1551.28,3150.91 1554.28,3151.24 1557,3153.5C 1563.15,3169.61 1569.48,3185.61 1576,3201.5C 1582.14,3184.91 1587.97,3168.24 1593.5,3151.5C 1596.57,3151.18 1599.57,3151.52 1602.5,3152.5C 1594.59,3172.98 1587.26,3193.65 1580.5,3214.5C 1577.43,3214.82 1574.43,3214.48 1571.5,3213.5C 1565.09,3197.09 1558.59,3180.76 1552,3164.5C 1545.67,3180.83 1539.33,3197.17 1533,3213.5C 1530.21,3214.78 1527.37,3214.78 1524.5,3213.5C 1516.59,3193.02 1509.26,3172.35 1502.5,3151.5 Z"/></g>
<g><path style="opacity:0.882" fill="#ff624d" d="M 1694.5,3151.5 C 1696.83,3151.5 1699.17,3151.5 1701.5,3151.5C 1701.78,3155.19 1702.28,3158.85 1703,3162.5C 1709.64,3152.89 1718.81,3149.22 1730.5,3151.5C 1730.5,3153.83 1730.5,3156.17 1730.5,3158.5C 1713.39,3157.44 1704.22,3165.44 1703,3182.5C 1702.5,3193.16 1702.33,3203.83 1702.5,3214.5C 1699.83,3214.5 1697.17,3214.5 1694.5,3214.5C 1694.5,3193.5 1694.5,3172.5 1694.5,3151.5 Z"/></g>
<g><path style="opacity:0.88" fill="#ff624d" d="M 1747.5,3151.5 C 1750.17,3151.5 1752.83,3151.5 1755.5,3151.5C 1755.5,3172.5 1755.5,3193.5 1755.5,3214.5C 1752.83,3214.5 1750.17,3214.5 1747.5,3214.5C 1747.5,3193.5 1747.5,3172.5 1747.5,3151.5 Z"/></g>
<g><path style="opacity:0.904" fill="#ff624d" d="M 1966.5,3151.5 C 1969.57,3151.18 1972.57,3151.52 1975.5,3152.5C 1983.67,3169.5 1991.83,3186.5 2000,3203.5C 2007,3186.5 2014,3169.5 2021,3152.5C 2023.72,3151.56 2026.55,3151.22 2029.5,3151.5C 2019.16,3178.33 2008.33,3205 1997,3231.5C 1994.98,3234.76 1992.15,3236.92 1988.5,3238C 1983.25,3239.27 1977.91,3239.77 1972.5,3239.5C 1972.5,3236.83 1972.5,3234.17 1972.5,3231.5C 1978.11,3232.09 1983.44,3231.26 1988.5,3229C 1991.7,3224.26 1994.03,3219.09 1995.5,3213.5C 1985.82,3192.82 1976.16,3172.15 1966.5,3151.5 Z"/></g>
<g><path style="opacity:0.916" fill="#ff624d" d="M 2122.5,3151.5 C 2125.17,3151.5 2127.83,3151.5 2130.5,3151.5C 2130.33,3164.17 2130.5,3176.84 2131,3189.5C 2132.11,3201.44 2138.61,3207.77 2150.5,3208.5C 2160.2,3208.3 2166.7,3203.64 2170,3194.5C 2171.43,3180.23 2171.93,3165.89 2171.5,3151.5C 2174.17,3151.5 2176.83,3151.5 2179.5,3151.5C 2179.5,3172.5 2179.5,3193.5 2179.5,3214.5C 2177.17,3214.5 2174.83,3214.5 2172.5,3214.5C 2172.67,3211.15 2172.5,3207.82 2172,3204.5C 2163.68,3215.38 2152.85,3218.88 2139.5,3215C 2129.21,3210.6 2123.71,3202.77 2123,3191.5C 2122.5,3178.17 2122.33,3164.84 2122.5,3151.5 Z"/></g>
<g><path style="opacity:0.909" fill="#ff624d" d="M 2204.5,3151.5 C 2206.83,3151.5 2209.17,3151.5 2211.5,3151.5C 2211.33,3155.18 2211.5,3158.85 2212,3162.5C 2215.32,3156.92 2220.16,3153.42 2226.5,3152C 2231.15,3151.5 2235.82,3151.33 2240.5,3151.5C 2240.5,3153.83 2240.5,3156.17 2240.5,3158.5C 2226.09,3156.77 2216.93,3162.77 2213,3176.5C 2212.5,3189.16 2212.33,3201.83 2212.5,3214.5C 2209.83,3214.5 2207.17,3214.5 2204.5,3214.5C 2204.5,3193.5 2204.5,3172.5 2204.5,3151.5 Z"/></g>
<g><path style="opacity:0.918" fill="#ff624d" d="M 2373.5,3151.5 C 2376.17,3151.5 2378.83,3151.5 2381.5,3151.5C 2381.07,3166.56 2381.57,3181.56 2383,3196.5C 2390,3209.02 2399.83,3211.85 2412.5,3205C 2418.13,3200.57 2421.3,3194.74 2422,3187.5C 2422.5,3175.5 2422.67,3163.5 2422.5,3151.5C 2425.17,3151.5 2427.83,3151.5 2430.5,3151.5C 2430.5,3172.5 2430.5,3193.5 2430.5,3214.5C 2428.17,3214.5 2425.83,3214.5 2423.5,3214.5C 2423.89,3211.28 2423.39,3208.28 2422,3205.5C 2413.33,3215.71 2402.49,3218.88 2389.5,3215C 2380.84,3210.87 2375.67,3204.03 2374,3194.5C 2373.5,3180.17 2373.33,3165.84 2373.5,3151.5 Z"/></g>
<g><path style="opacity:0.88" fill="#ff624d" d="M 2521.5,3151.5 C 2524.17,3151.5 2526.83,3151.5 2529.5,3151.5C 2529.5,3172.5 2529.5,3193.5 2529.5,3214.5C 2526.83,3214.5 2524.17,3214.5 2521.5,3214.5C 2521.5,3193.5 2521.5,3172.5 2521.5,3151.5 Z"/></g>
<g><path style="opacity:0.907" fill="#ff624c" d="M 2845.5,3202.5 C 2855.82,3202.32 2858.15,3206.49 2852.5,3215C 2843.29,3216.79 2840.12,3213.29 2843,3204.5C 2843.99,3203.93 2844.83,3203.27 2845.5,3202.5 Z"/></g>
</svg>
